<?xml version="1.0" encoding="UTF-8"?>
<svg version="1.1" xmlns="http://www.w3.org/2000/svg" width="400" height="300">
<path d="M0 0 C132 0 264 0 400 0 C400 99 400 198 400 300 C268 300 136 300 0 300 C0 201 0 102 0 0 Z " fill="#000000" transform="translate(0,0)"/>
<path d="M0 0 C5.6933674 -0.09215882 11.38411591 -0.17169619 17.07763672 -0.21972656 C19.01164552 -0.23976141 20.94559435 -0.26699729 22.87939453 -0.30175781 C25.66974743 -0.35063571 28.45929501 -0.37305019 31.25 -0.390625 C32.10553467 -0.41127014 32.96106934 -0.43191528 33.8425293 -0.45318604 C39.72163154 -0.4553515 44.07576152 0.7220208 49 4 C53.52448143 8.52448143 56.11352368 13.96250325 56.4375 20.375 C56.1959373 26.80935182 53.67479315 31.91782474 49.6875 36.875 C42.91929893 42.22660085 39.02713662 42 30 42 C30 53.88 30 65.76 30 78 C20.1 78 10.2 78 0 78 C0 59.85 0 41.7 0 23 C12.21 23 24.42 23 37 23 C36.505 21.02 36.505 21.02 36 19 C24.12 18.67 12.24 18.34 0 18 C0 12.06 0 6.12 0 0 Z " fill="#DCDCDC" transform="translate(172,111)"/>
<path d="M0 0 C5.6933674 -0.09215882 11.38411591 -0.17169619 17.07763672 -0.21972656 C19.01164552 -0.23976141 20.94559435 -0.26699729 22.87939453 -0.30175781 C25.66974743 -0.35063571 28.45929501 -0.37305019 31.25 -0.390625 C32.10553467 -0.41127014 32.96106934 -0.43191528 33.8425293 -0.45318604 C39.42921143 -0.4552438 44.5714844 0.3159765 49 4 C49.71582031 6.13909912 49.71582031 6.13909912 50 8 C47.10833869 9.15666452 45.89135201 8.96729727 42.84155273 8.04931641 C38.86182941 6.96225884 35.18824942 6.6548465 31.09765625 6.5859375 C30.3750914 6.56657135 29.65252655 6.5472052 28.9080658 6.5272522 C26.62632625 6.46802395 24.34453467 6.42130145 22.0625 6.375 C20.5045367 6.33676777 18.94659334 6.29771308 17.38867188 6.2578125 C13.59261219 6.16237025 9.79645378 6.07813332 6 6 C6 7.98 6 9.96 6 12 C7.46808105 11.9685791 7.46808105 11.9685791 8.96582031 11.93652344 C12.60352904 11.86402037 16.24117416 11.81816367 19.87939453 11.78027344 C21.45274604 11.7601812 23.02602308 11.73290201 24.59912109 11.69824219 C26.86314272 11.64961506 29.12617573 11.62700865 31.390625 11.609375 C32.09181458 11.58872986 32.79300415 11.56808472 33.51544189 11.54681396 C36.94642464 11.5452443 38.69044521 11.76050153 41.44018555 13.88793945 C43.21077332 16.28539678 43.56761976 17.48339807 43.5625 20.4375 C43.58441406 21.17871094 43.60632813 21.91992188 43.62890625 22.68359375 C42.6674533 26.22484591 40.81197227 27.6986103 38 30 C34.58666992 30.56762695 34.58666992 30.56762695 30.73046875 30.48828125 C29.48418701 30.47579346 28.23790527 30.46330566 26.95385742 30.45043945 C25.38095947 30.40491943 23.80806152 30.35939941 22.1875 30.3125 C14.6696875 30.1578125 14.6696875 30.1578125 7 30 C7 43.86 7 57.72 7 72 C12.61 72 18.22 72 24 72 C24 62.43 24 52.86 24 43 C25.65 43 27.3 43 29 43 C29 54.55 29 66.1 29 78 C19.43 78 9.86 78 0 78 C0 59.85 0 41.7 0 23 C12.21 23 24.42 23 37 23 C36.505 21.02 36.505 21.02 36 19 C24.12 18.67 12.24 18.34 0 18 C0 12.06 0 6.12 0 0 Z " fill="#F2F2F2" transform="translate(172,111)"/>
<path d="M0 0 C4.58980814 -0.07447267 9.17926014 -0.12875322 13.76953125 -0.16479492 C15.32916394 -0.17982869 16.88875472 -0.20026135 18.44824219 -0.22631836 C20.69737116 -0.26294211 22.94593847 -0.27978021 25.1953125 -0.29296875 C25.8861795 -0.30845261 26.57704651 -0.32393646 27.28884888 -0.33988953 C31.94100045 -0.34148616 35.0470977 0.566524 39 3 C42.4868071 6.67032326 43.28363464 9.57630842 43.4375 14.5 C43.25391917 19.00384972 42.70564647 22.26807383 40 26 C36.00318833 28.99437292 33.10746457 29.35824843 28.16796875 29.29296875 C27.00289795 29.28547607 25.83782715 29.2779834 24.63745117 29.27026367 C23.16896729 29.24295166 21.7004834 29.21563965 20.1875 29.1875 C15.505625 29.125625 10.82375 29.06375 6 29 C6 41.21 6 53.42 6 66 C4.35 66 2.7 66 1 66 C1 52.14 1 38.28 1 24 C16.25 23.75 16.25 23.75 21.04394531 23.70214844 C22.29272461 23.6715332 23.54150391 23.64091797 24.828125 23.609375 C26.1059082 23.58842773 27.38369141 23.56748047 28.70019531 23.54589844 C32.50634368 22.91623376 33.7088609 22.0438965 36 19 C36.58858845 16.75472067 36.58858845 16.75472067 36.4375 14.4375 C36.43621094 13.67308594 36.43492187 12.90867188 36.43359375 12.12109375 C35.8682787 9.35563364 35.29879469 8.65619547 33 7 C30.42182889 6.66920662 28.07079833 6.5116437 25.48828125 6.48828125 C24.76005661 6.47033005 24.03183197 6.45237885 23.28153992 6.43388367 C20.95858529 6.37975787 18.63583634 6.3458792 16.3125 6.3125 C14.73629949 6.27932875 13.16012612 6.24483927 11.58398438 6.20898438 C7.72280464 6.1240307 3.86168613 6.05723124 0 6 C0 4.02 0 2.04 0 0 Z " fill="#050505" transform="translate(178,117)"/>
<path d="M0 0 C1.32 0 2.64 0 4 0 C4 9.9 4 19.8 4 30 C2.68 30 1.36 30 0 30 C0 20.1 0 10.2 0 0 Z " fill="#010101" transform="translate(191,153)"/>
</svg>
